<mxfile host="app.diagrams.net" modified="2023-08-18T12:19:34.442Z" agent="Mozilla/5.0 (Windows NT 10.0; Win64; x64) AppleWebKit/537.36 (KHTML, like Gecko) Chrome/116.0.0.0 Safari/537.36" etag="Dsj-riC0cl_w889OAqex" version="21.6.8" type="github">
  <diagram id="a45cf8ec-cd66-6f27-3ac3-be6e809c9e4a" name="Page-1">
    <mxGraphModel dx="819" dy="439" grid="1" gridSize="10" guides="1" tooltips="1" connect="1" arrows="1" fold="1" page="1" pageScale="1" pageWidth="827" pageHeight="1169" background="none" math="0" shadow="0">
      <root>
        <mxCell id="0" />
        <mxCell id="1" parent="0" />
        <mxCell id="F5sXXvqvMpIU_v0tdctw-172" value="Infraestructura" style="rounded=0;whiteSpace=wrap;html=1;" vertex="1" parent="1">
          <mxGeometry x="340" y="30" width="120" height="60" as="geometry" />
        </mxCell>
        <mxCell id="F5sXXvqvMpIU_v0tdctw-174" value="&lt;font style=&quot;font-size: 8px;&quot;&gt;Implement Azure security&lt;/font&gt;" style="rounded=0;whiteSpace=wrap;html=1;" vertex="1" parent="1">
          <mxGeometry x="500" y="460" width="80" height="40" as="geometry" />
        </mxCell>
        <mxCell id="F5sXXvqvMpIU_v0tdctw-175" value="&lt;font style=&quot;font-size: 8px;&quot;&gt;Monitor, troubleshoot, and optimize Azure solutions&lt;/font&gt;" style="rounded=0;whiteSpace=wrap;html=1;" vertex="1" parent="1">
          <mxGeometry x="120" y="690" width="80" height="50" as="geometry" />
        </mxCell>
        <mxCell id="F5sXXvqvMpIU_v0tdctw-176" value="&lt;font style=&quot;font-size: 8px;&quot;&gt;Develop Azure compute solutions&lt;/font&gt;" style="rounded=0;whiteSpace=wrap;html=1;" vertex="1" parent="1">
          <mxGeometry x="40" y="40" width="80" height="40" as="geometry" />
        </mxCell>
        <mxCell id="F5sXXvqvMpIU_v0tdctw-177" value="&lt;font style=&quot;font-size: 8px;&quot;&gt;Connect to and consume Azure services and third-party services&lt;/font&gt;" style="rounded=0;whiteSpace=wrap;html=1;" vertex="1" parent="1">
          <mxGeometry x="580" y="790" width="80" height="60" as="geometry" />
        </mxCell>
        <mxCell id="F5sXXvqvMpIU_v0tdctw-178" value="&lt;font style=&quot;font-size: 8px;&quot;&gt;Develop Azure for storage&lt;/font&gt;" style="rounded=0;whiteSpace=wrap;html=1;" vertex="1" parent="1">
          <mxGeometry x="470" y="40" width="90" height="40" as="geometry" />
        </mxCell>
        <mxCell id="F5sXXvqvMpIU_v0tdctw-179" value="&lt;font style=&quot;font-size: 6px;&quot;&gt;Implement containerized solutions&lt;/font&gt;" style="rounded=0;whiteSpace=wrap;html=1;" vertex="1" parent="1">
          <mxGeometry x="120" y="100" width="150" height="20" as="geometry" />
        </mxCell>
        <mxCell id="F5sXXvqvMpIU_v0tdctw-181" value="&lt;font style=&quot;font-size: 6px;&quot;&gt;Implement Azure App Service Web Apps&lt;/font&gt;" style="rounded=0;whiteSpace=wrap;html=1;" vertex="1" parent="1">
          <mxGeometry x="120" y="360" width="150" height="20" as="geometry" />
        </mxCell>
        <mxCell id="F5sXXvqvMpIU_v0tdctw-182" value="&lt;font style=&quot;font-size: 6px;&quot;&gt;Implement Azure functions&lt;/font&gt;" style="rounded=0;whiteSpace=wrap;html=1;" vertex="1" parent="1">
          <mxGeometry x="120" y="610" width="150" height="20" as="geometry" />
        </mxCell>
        <mxCell id="F5sXXvqvMpIU_v0tdctw-183" value="" style="endArrow=none;html=1;rounded=0;entryX=0.5;entryY=1;entryDx=0;entryDy=0;" edge="1" parent="1" target="F5sXXvqvMpIU_v0tdctw-176">
          <mxGeometry width="50" height="50" relative="1" as="geometry">
            <mxPoint x="80" y="620" as="sourcePoint" />
            <mxPoint x="60" y="130" as="targetPoint" />
          </mxGeometry>
        </mxCell>
        <mxCell id="F5sXXvqvMpIU_v0tdctw-184" value="" style="endArrow=none;html=1;rounded=0;entryX=0;entryY=0.5;entryDx=0;entryDy=0;" edge="1" parent="1" target="F5sXXvqvMpIU_v0tdctw-181">
          <mxGeometry width="50" height="50" relative="1" as="geometry">
            <mxPoint x="80" y="370" as="sourcePoint" />
            <mxPoint x="260" y="180" as="targetPoint" />
          </mxGeometry>
        </mxCell>
        <mxCell id="F5sXXvqvMpIU_v0tdctw-186" value="" style="endArrow=none;html=1;rounded=0;entryX=0;entryY=0.5;entryDx=0;entryDy=0;" edge="1" parent="1" target="F5sXXvqvMpIU_v0tdctw-179">
          <mxGeometry width="50" height="50" relative="1" as="geometry">
            <mxPoint x="80" y="170" as="sourcePoint" />
            <mxPoint x="260" y="180" as="targetPoint" />
          </mxGeometry>
        </mxCell>
        <mxCell id="F5sXXvqvMpIU_v0tdctw-188" value="" style="endArrow=none;html=1;rounded=0;entryX=0;entryY=0.5;entryDx=0;entryDy=0;" edge="1" parent="1" target="F5sXXvqvMpIU_v0tdctw-182">
          <mxGeometry width="50" height="50" relative="1" as="geometry">
            <mxPoint x="80" y="620" as="sourcePoint" />
            <mxPoint x="100" y="249.76" as="targetPoint" />
          </mxGeometry>
        </mxCell>
        <mxCell id="F5sXXvqvMpIU_v0tdctw-190" value="&lt;font style=&quot;font-size: 6px;&quot;&gt;Develop solutions that use Azure Cosmos DB&lt;/font&gt;" style="rounded=0;whiteSpace=wrap;html=1;" vertex="1" parent="1">
          <mxGeometry x="580" y="120" width="150" height="20" as="geometry" />
        </mxCell>
        <mxCell id="F5sXXvqvMpIU_v0tdctw-191" value="&lt;font style=&quot;font-size: 6px;&quot;&gt;Develop solutions that use Azure Blob Storage&lt;/font&gt;" style="rounded=0;whiteSpace=wrap;html=1;" vertex="1" parent="1">
          <mxGeometry x="580" y="250" width="150" height="20" as="geometry" />
        </mxCell>
        <mxCell id="F5sXXvqvMpIU_v0tdctw-195" value="" style="endArrow=none;html=1;rounded=0;exitX=0;exitY=0.5;exitDx=0;exitDy=0;" edge="1" parent="1" source="F5sXXvqvMpIU_v0tdctw-191">
          <mxGeometry width="50" height="50" relative="1" as="geometry">
            <mxPoint x="470" y="270" as="sourcePoint" />
            <mxPoint x="520" y="260" as="targetPoint" />
          </mxGeometry>
        </mxCell>
        <mxCell id="F5sXXvqvMpIU_v0tdctw-197" value="" style="endArrow=none;html=1;rounded=0;entryX=0;entryY=0.5;entryDx=0;entryDy=0;" edge="1" parent="1" target="F5sXXvqvMpIU_v0tdctw-190">
          <mxGeometry width="50" height="50" relative="1" as="geometry">
            <mxPoint x="520" y="130" as="sourcePoint" />
            <mxPoint x="520" y="220" as="targetPoint" />
          </mxGeometry>
        </mxCell>
        <mxCell id="F5sXXvqvMpIU_v0tdctw-198" value="" style="endArrow=none;html=1;rounded=0;entryX=0.5;entryY=1;entryDx=0;entryDy=0;" edge="1" parent="1">
          <mxGeometry width="50" height="50" relative="1" as="geometry">
            <mxPoint x="520" y="260" as="sourcePoint" />
            <mxPoint x="520" y="80" as="targetPoint" />
          </mxGeometry>
        </mxCell>
        <mxCell id="F5sXXvqvMpIU_v0tdctw-200" value="&lt;font style=&quot;font-size: 6px;&quot;&gt;Implement secure Azure solutions&lt;/font&gt;" style="rounded=0;whiteSpace=wrap;html=1;" vertex="1" parent="1">
          <mxGeometry x="560" y="670" width="150" height="20" as="geometry" />
        </mxCell>
        <mxCell id="F5sXXvqvMpIU_v0tdctw-201" value="&lt;font style=&quot;font-size: 6px;&quot;&gt;Implement user authentication and autorization&lt;/font&gt;" style="rounded=0;whiteSpace=wrap;html=1;" vertex="1" parent="1">
          <mxGeometry x="560" y="560" width="150" height="20" as="geometry" />
        </mxCell>
        <mxCell id="F5sXXvqvMpIU_v0tdctw-202" value="" style="endArrow=none;html=1;rounded=0;entryX=0.5;entryY=1;entryDx=0;entryDy=0;" edge="1" parent="1" target="F5sXXvqvMpIU_v0tdctw-174">
          <mxGeometry width="50" height="50" relative="1" as="geometry">
            <mxPoint x="540" y="680" as="sourcePoint" />
            <mxPoint x="430" y="460" as="targetPoint" />
          </mxGeometry>
        </mxCell>
        <mxCell id="F5sXXvqvMpIU_v0tdctw-203" value="" style="endArrow=none;html=1;rounded=0;entryX=0;entryY=0.5;entryDx=0;entryDy=0;" edge="1" parent="1" target="F5sXXvqvMpIU_v0tdctw-201">
          <mxGeometry width="50" height="50" relative="1" as="geometry">
            <mxPoint x="540" y="570" as="sourcePoint" />
            <mxPoint x="430" y="460" as="targetPoint" />
          </mxGeometry>
        </mxCell>
        <mxCell id="F5sXXvqvMpIU_v0tdctw-204" value="" style="endArrow=none;html=1;rounded=0;entryX=0;entryY=0.5;entryDx=0;entryDy=0;" edge="1" parent="1" target="F5sXXvqvMpIU_v0tdctw-200">
          <mxGeometry width="50" height="50" relative="1" as="geometry">
            <mxPoint x="540" y="680" as="sourcePoint" />
            <mxPoint x="430" y="460" as="targetPoint" />
          </mxGeometry>
        </mxCell>
        <mxCell id="F5sXXvqvMpIU_v0tdctw-207" value="&lt;font style=&quot;font-size: 6px;&quot;&gt;Troubleshoot solutions by using Application Insights&lt;/font&gt;" style="rounded=0;whiteSpace=wrap;html=1;" vertex="1" parent="1">
          <mxGeometry x="220" y="900" width="150" height="20" as="geometry" />
        </mxCell>
        <mxCell id="F5sXXvqvMpIU_v0tdctw-208" value="&lt;font style=&quot;font-size: 6px;&quot;&gt;Implement caching for solutions&lt;/font&gt;" style="rounded=0;whiteSpace=wrap;html=1;" vertex="1" parent="1">
          <mxGeometry x="220" y="810" width="150" height="20" as="geometry" />
        </mxCell>
        <mxCell id="F5sXXvqvMpIU_v0tdctw-209" value="" style="endArrow=none;html=1;rounded=0;entryX=0;entryY=0.5;entryDx=0;entryDy=0;" edge="1" parent="1" target="F5sXXvqvMpIU_v0tdctw-208">
          <mxGeometry width="50" height="50" relative="1" as="geometry">
            <mxPoint x="160" y="820" as="sourcePoint" />
            <mxPoint x="180" y="630" as="targetPoint" />
          </mxGeometry>
        </mxCell>
        <mxCell id="F5sXXvqvMpIU_v0tdctw-210" value="" style="endArrow=none;html=1;rounded=0;entryX=0;entryY=0.5;entryDx=0;entryDy=0;" edge="1" parent="1" target="F5sXXvqvMpIU_v0tdctw-207">
          <mxGeometry width="50" height="50" relative="1" as="geometry">
            <mxPoint x="160" y="910" as="sourcePoint" />
            <mxPoint x="180" y="630" as="targetPoint" />
          </mxGeometry>
        </mxCell>
        <mxCell id="F5sXXvqvMpIU_v0tdctw-211" value="" style="endArrow=none;html=1;rounded=0;entryX=0.5;entryY=1;entryDx=0;entryDy=0;" edge="1" parent="1" target="F5sXXvqvMpIU_v0tdctw-175">
          <mxGeometry width="50" height="50" relative="1" as="geometry">
            <mxPoint x="160" y="910" as="sourcePoint" />
            <mxPoint x="180" y="630" as="targetPoint" />
          </mxGeometry>
        </mxCell>
        <mxCell id="F5sXXvqvMpIU_v0tdctw-212" value="&lt;font style=&quot;font-size: 6px;&quot;&gt;Implement API Management&lt;/font&gt;" style="rounded=0;whiteSpace=wrap;html=1;" vertex="1" parent="1">
          <mxGeometry x="660" y="890" width="100" height="20" as="geometry" />
        </mxCell>
        <mxCell id="F5sXXvqvMpIU_v0tdctw-213" value="&lt;font style=&quot;font-size: 6px;&quot;&gt;Develop event-based solutions&lt;/font&gt;" style="rounded=0;whiteSpace=wrap;html=1;" vertex="1" parent="1">
          <mxGeometry x="660" y="980" width="100" height="20" as="geometry" />
        </mxCell>
        <mxCell id="F5sXXvqvMpIU_v0tdctw-214" value="&lt;font style=&quot;font-size: 6px;&quot;&gt;Develop message-based solutions&lt;/font&gt;" style="rounded=0;whiteSpace=wrap;html=1;" vertex="1" parent="1">
          <mxGeometry x="660" y="1060" width="100" height="20" as="geometry" />
        </mxCell>
        <mxCell id="F5sXXvqvMpIU_v0tdctw-215" value="" style="endArrow=none;html=1;rounded=0;entryX=0.5;entryY=1;entryDx=0;entryDy=0;" edge="1" parent="1" target="F5sXXvqvMpIU_v0tdctw-177">
          <mxGeometry width="50" height="50" relative="1" as="geometry">
            <mxPoint x="620" y="1070" as="sourcePoint" />
            <mxPoint x="660" y="660" as="targetPoint" />
          </mxGeometry>
        </mxCell>
        <mxCell id="F5sXXvqvMpIU_v0tdctw-216" value="" style="endArrow=none;html=1;rounded=0;entryX=0;entryY=0.5;entryDx=0;entryDy=0;" edge="1" parent="1" target="F5sXXvqvMpIU_v0tdctw-212">
          <mxGeometry width="50" height="50" relative="1" as="geometry">
            <mxPoint x="620" y="900" as="sourcePoint" />
            <mxPoint x="660" y="660" as="targetPoint" />
          </mxGeometry>
        </mxCell>
        <mxCell id="F5sXXvqvMpIU_v0tdctw-217" value="" style="endArrow=none;html=1;rounded=0;entryX=0;entryY=0.5;entryDx=0;entryDy=0;" edge="1" parent="1" target="F5sXXvqvMpIU_v0tdctw-213">
          <mxGeometry width="50" height="50" relative="1" as="geometry">
            <mxPoint x="620" y="990" as="sourcePoint" />
            <mxPoint x="660" y="660" as="targetPoint" />
          </mxGeometry>
        </mxCell>
        <mxCell id="F5sXXvqvMpIU_v0tdctw-218" value="" style="endArrow=none;html=1;rounded=0;entryX=0;entryY=0.5;entryDx=0;entryDy=0;" edge="1" parent="1" target="F5sXXvqvMpIU_v0tdctw-214">
          <mxGeometry width="50" height="50" relative="1" as="geometry">
            <mxPoint x="620" y="1070" as="sourcePoint" />
            <mxPoint x="660" y="660" as="targetPoint" />
          </mxGeometry>
        </mxCell>
        <mxCell id="F5sXXvqvMpIU_v0tdctw-219" value="&lt;span style=&quot;font-size: 6px;&quot;&gt;Create and manage container images for solutions&lt;/span&gt;" style="rounded=0;whiteSpace=wrap;html=1;" vertex="1" parent="1">
          <mxGeometry x="210" y="170" width="140" height="20" as="geometry" />
        </mxCell>
        <mxCell id="F5sXXvqvMpIU_v0tdctw-223" value="&lt;span style=&quot;font-size: 6px;&quot;&gt;Publish an image to Azure Container Registry&lt;/span&gt;" style="rounded=0;whiteSpace=wrap;html=1;" vertex="1" parent="1">
          <mxGeometry x="210" y="220" width="140" height="20" as="geometry" />
        </mxCell>
        <mxCell id="F5sXXvqvMpIU_v0tdctw-224" value="&lt;span style=&quot;font-size: 6px;&quot;&gt;Run containers by using Azure Container Instance&lt;/span&gt;" style="rounded=0;whiteSpace=wrap;html=1;" vertex="1" parent="1">
          <mxGeometry x="210" y="270" width="140" height="20" as="geometry" />
        </mxCell>
        <mxCell id="F5sXXvqvMpIU_v0tdctw-225" value="&lt;span style=&quot;font-size: 6px;&quot;&gt;Create solutions by using Azure Container Instance&lt;/span&gt;" style="rounded=0;whiteSpace=wrap;html=1;" vertex="1" parent="1">
          <mxGeometry x="210" y="320" width="140" height="20" as="geometry" />
        </mxCell>
        <mxCell id="F5sXXvqvMpIU_v0tdctw-226" value="" style="endArrow=none;html=1;rounded=0;" edge="1" parent="1">
          <mxGeometry width="50" height="50" relative="1" as="geometry">
            <mxPoint x="190" y="330" as="sourcePoint" />
            <mxPoint x="190" y="120" as="targetPoint" />
          </mxGeometry>
        </mxCell>
        <mxCell id="F5sXXvqvMpIU_v0tdctw-227" value="" style="endArrow=none;html=1;rounded=0;entryX=0;entryY=0.5;entryDx=0;entryDy=0;" edge="1" parent="1" target="F5sXXvqvMpIU_v0tdctw-219">
          <mxGeometry width="50" height="50" relative="1" as="geometry">
            <mxPoint x="190" y="180" as="sourcePoint" />
            <mxPoint x="260" y="210" as="targetPoint" />
          </mxGeometry>
        </mxCell>
        <mxCell id="F5sXXvqvMpIU_v0tdctw-228" value="" style="endArrow=none;html=1;rounded=0;entryX=0;entryY=0.5;entryDx=0;entryDy=0;" edge="1" parent="1" target="F5sXXvqvMpIU_v0tdctw-223">
          <mxGeometry width="50" height="50" relative="1" as="geometry">
            <mxPoint x="190" y="230" as="sourcePoint" />
            <mxPoint x="260" y="210" as="targetPoint" />
          </mxGeometry>
        </mxCell>
        <mxCell id="F5sXXvqvMpIU_v0tdctw-229" value="" style="endArrow=none;html=1;rounded=0;entryX=0;entryY=0.5;entryDx=0;entryDy=0;" edge="1" parent="1" target="F5sXXvqvMpIU_v0tdctw-224">
          <mxGeometry width="50" height="50" relative="1" as="geometry">
            <mxPoint x="190" y="280" as="sourcePoint" />
            <mxPoint x="260" y="210" as="targetPoint" />
          </mxGeometry>
        </mxCell>
        <mxCell id="F5sXXvqvMpIU_v0tdctw-230" value="" style="endArrow=none;html=1;rounded=0;entryX=0;entryY=0.5;entryDx=0;entryDy=0;" edge="1" parent="1" target="F5sXXvqvMpIU_v0tdctw-225">
          <mxGeometry width="50" height="50" relative="1" as="geometry">
            <mxPoint x="190" y="330" as="sourcePoint" />
            <mxPoint x="260" y="210" as="targetPoint" />
          </mxGeometry>
        </mxCell>
        <mxCell id="F5sXXvqvMpIU_v0tdctw-231" value="Create an Azure App Service Web App" style="rounded=0;whiteSpace=wrap;html=1;" vertex="1" parent="1">
          <mxGeometry x="210" y="410" width="150" height="20" as="geometry" />
        </mxCell>
        <mxCell id="F5sXXvqvMpIU_v0tdctw-232" value="" style="rounded=0;whiteSpace=wrap;html=1;" vertex="1" parent="1">
          <mxGeometry x="210" y="450" width="150" height="20" as="geometry" />
        </mxCell>
        <mxCell id="F5sXXvqvMpIU_v0tdctw-233" value="" style="rounded=0;whiteSpace=wrap;html=1;" vertex="1" parent="1">
          <mxGeometry x="210" y="490" width="150" height="20" as="geometry" />
        </mxCell>
        <mxCell id="F5sXXvqvMpIU_v0tdctw-234" value="" style="rounded=0;whiteSpace=wrap;html=1;" vertex="1" parent="1">
          <mxGeometry x="210" y="530" width="150" height="20" as="geometry" />
        </mxCell>
        <mxCell id="F5sXXvqvMpIU_v0tdctw-235" value="" style="rounded=0;whiteSpace=wrap;html=1;" vertex="1" parent="1">
          <mxGeometry x="210" y="575" width="150" height="20" as="geometry" />
        </mxCell>
      </root>
    </mxGraphModel>
  </diagram>
</mxfile>
